<?xml version="1.0" standalone="no"?>
<!DOCTYPE svg PUBLIC "-//W3C//DTD SVG 20010904//EN"
 "http://www.w3.org/TR/2001/REC-SVG-20010904/DTD/svg10.dtd">
<svg version="1.0" xmlns="http://www.w3.org/2000/svg"
 width="700.000000pt" height="700.000000pt" viewBox="0 0 700.000000 700.000000"
 preserveAspectRatio="xMidYMid meet">
<metadata>
Created by potrace 1.11, written by Peter Selinger 2001-2013
</metadata>
<g transform="translate(0.000000,700.000000) scale(0.100000,-0.100000)"
fill="#000000" stroke="none">
<path d="M3160 6997 c-3 -3 -32 -7 -65 -11 -33 -3 -69 -8 -80 -10 -11 -2 -42
-7 -68 -10 -27 -4 -59 -9 -70 -12 -100 -19 -125 -24 -144 -29 -13 -3 -32 -7
-44 -10 -11 -2 -29 -7 -39 -10 -10 -3 -27 -7 -37 -9 -53 -11 -301 -89 -368
-117 -16 -7 -32 -13 -35 -14 -8 -3 -62 -24 -85 -34 -11 -4 -77 -36 -147 -70
-70 -33 -131 -61 -137 -61 -6 0 -11 -4 -11 -8 0 -5 -17 -16 -37 -26 -38 -18
-233 -135 -243 -146 -3 -3 -25 -19 -50 -35 -51 -34 -192 -139 -230 -171 -143
-122 -245 -217 -341 -320 -39 -42 -189 -220 -222 -264 -141 -186 -249 -361
-359 -582 -37 -76 -68 -140 -68 -144 0 -3 -6 -20 -14 -37 -89 -195 -203 -590
-232 -803 -3 -27 -8 -58 -10 -69 -15 -78 -19 -183 -19 -490 0 -192 4 -375 8
-405 5 -30 10 -71 13 -90 2 -19 6 -46 9 -60 3 -14 7 -43 11 -65 3 -22 9 -56
14 -75 5 -19 11 -46 14 -60 22 -118 131 -464 183 -580 13 -30 31 -71 40 -90
31 -71 137 -276 174 -338 22 -35 39 -68 39 -73 0 -5 4 -9 9 -9 5 0 14 -13 21
-30 7 -16 16 -30 21 -30 5 0 9 -5 9 -11 0 -15 106 -161 208 -287 109 -134 250
-283 372 -391 19 -17 53 -47 75 -66 95 -84 269 -210 460 -331 100 -63 374
-199 510 -252 227 -90 498 -167 683 -197 17 -3 44 -7 60 -9 15 -3 45 -7 67
-11 23 -3 50 -7 60 -9 146 -28 651 -28 855 -1 14 2 48 6 75 10 87 11 344 65
439 91 118 33 328 104 341 115 5 5 15 9 22 9 7 0 37 11 68 25 30 14 56 25 57
24 6 -3 293 145 296 153 2 4 8 8 14 8 5 0 22 9 38 20 15 11 30 17 34 13 3 -3
6 -1 6 5 0 7 5 12 10 12 12 0 278 179 330 222 19 16 47 40 62 53 15 14 29 25
32 25 3 0 14 8 24 18 10 9 54 49 98 88 88 80 215 208 266 269 18 21 40 46 48
55 24 24 160 199 160 205 0 5 25 36 48 61 7 8 10 14 7 14 -4 0 4 13 18 30 14
16 40 55 58 87 18 32 35 60 38 63 3 3 11 14 17 25 6 11 24 43 39 70 53 94 134
263 184 384 57 138 135 370 145 431 2 8 8 33 14 55 14 48 51 226 57 275 3 19
8 58 11 85 4 28 10 73 14 100 11 70 10 675 -1 760 -5 39 -11 88 -14 110 -3 22
-7 49 -9 60 -2 11 -7 40 -11 65 -4 25 -13 70 -20 100 -8 30 -16 69 -19 85 -3
17 -11 46 -16 65 -6 19 -13 46 -16 60 -6 32 -99 310 -117 353 -8 17 -27 61
-42 97 -50 117 -180 372 -209 410 -7 8 -21 32 -31 53 -11 20 -22 37 -26 37 -4
0 -9 8 -13 18 -8 26 -9 26 -145 207 -122 162 -246 303 -370 419 -24 23 -61 58
-83 79 -22 20 -41 37 -43 37 -2 0 -19 14 -37 31 -18 17 -87 71 -153 120 -66
49 -125 94 -132 99 -7 6 -24 15 -38 22 -14 6 -25 15 -25 20 0 4 -7 8 -15 8 -8
0 -15 5 -15 11 0 5 -4 8 -9 5 -5 -4 -11 -2 -13 2 -4 10 -125 82 -139 82 -5 0
-9 5 -9 10 0 6 -4 10 -8 10 -5 0 -46 20 -93 45 -46 25 -86 46 -89 47 -3 0 -37
16 -76 34 -58 27 -225 95 -244 99 -3 1 -12 4 -20 8 -49 20 -289 92 -338 102
-9 1 -37 8 -62 15 -25 7 -56 14 -70 16 -14 3 -36 7 -50 9 -49 10 -68 13 -106
19 -72 11 -109 17 -144 23 -40 7 -754 16 -760 10z"/>
</g>
</svg>
